# This file uses meters as units for non-parametric coordinates.

mtllib chair_frame_01.mtl
g default
v -31.976135 -20.251997 -41.430115
v 0.000000 -50.000000 -41.430115
v -50.000000 -50.000000 -41.430115
v -50.000000 0.000000 -41.430115
v 50.000000 -50.000000 -41.430115
v 0.000000 -50.000000 41.430115
v -50.000000 -50.000000 41.430115
v -50.000000 0.000000 41.430115
v 50.000000 -50.000000 41.430115
v -31.976135 -20.251997 41.430115
v 0.000000 0.000000 -70.412659
v 0.000000 -50.000000 -70.412659
v 0.000000 -50.000000 70.412659
v 0.000000 0.000000 70.412659
v -50.000000 45.494484 -41.430115
v -45.494507 50.000000 -41.430115
v -45.494507 50.000000 41.430115
v -50.000000 45.494484 41.430115
v -27.044373 50.000000 -45.900146
v -36.481445 50.000000 -41.430115
v -31.976135 45.511597 -41.430115
v -31.976135 45.511597 41.430115
v -36.481445 50.000000 41.430115
v -27.044373 50.000000 45.900146
v -45.494507 -50.000000 -70.412659
v -50.000000 -50.000000 -65.907166
v -45.494507 0.000000 -70.412659
v -50.000000 0.000000 -65.907166
v -45.494507 45.494484 -70.412659
v -50.000000 45.494484 -65.907166
v -45.494507 50.000000 -65.907166
v -0.052917 45.458748 -70.412659
v -0.000916 49.928810 -65.871948
v 50.000000 -2.822552 -66.373352
v 45.072205 0.000000 -70.412659
v 45.494507 -50.000000 -70.412659
v 50.000000 -50.000000 -65.907166
v -45.494507 -50.000000 70.412659
v -50.000000 -50.000000 65.907166
v -50.000000 0.000000 65.907166
v -45.494507 0.000000 70.412659
v -45.494507 45.494484 70.412659
v -45.494507 50.000000 65.907166
v -50.000000 45.494484 65.907166
v -0.000916 49.928810 65.872009
v -0.052917 45.458748 70.412659
v 45.494507 -50.000000 70.412659
v 50.000000 -50.000000 65.907166
v 45.072205 0.000000 70.412659
v 50.000000 -2.822552 66.373352
v 45.494507 -20.251997 -41.430115
v 50.000000 -20.251997 -36.651306
v 50.000000 -25.030817 -41.430115
v 50.000000 -17.103699 -45.935608
v 45.526611 48.898445 -45.903931
v 45.494507 44.392929 -41.430115
v 50.000000 44.361023 -45.903931
v 45.495728 48.939827 -65.907166
v 50.000000 44.380928 -65.958740
v 45.494507 44.433113 -70.412659
v 50.000000 -17.103699 45.935608
v 50.000000 -25.030817 41.430115
v 50.000000 -20.251997 36.651306
v 45.494507 -20.251997 41.430115
v 50.000000 44.361031 45.903931
v 45.494507 44.392937 41.430115
v 45.526611 48.898453 45.903931
v 45.547302 48.938629 65.958679
v 45.494507 44.433121 70.412659
v 50.000000 44.380936 65.958679
v 0.000000 -50.000000 65.907166
v 0.000000 -50.000000 -65.907166
vt 0.422103 0.309891
vt 0.284454 0.309891
vt 0.284454 0.081780
vt 0.422103 0.081780
vt 0.422103 0.377275
vt 0.284454 0.377275
vt 0.284454 0.014395
vt 0.422103 0.014395
vt 0.547347 0.081780
vt 0.547347 0.309891
vt 0.547347 0.377275
vt 0.284454 0.389679
vt 0.422103 0.389679
vt 0.284454 0.001992
vt 0.422103 0.001992
vt 0.547347 0.014395
vt 0.559751 0.309891
vt 0.559751 0.081780
vt 0.559751 0.377275
vt 0.547347 0.389679
vt 0.547347 0.001992
vt 0.559751 0.014395
vt 0.635629 0.309891
vt 0.635629 0.081780
vt 0.648785 0.094936
vt 0.648785 0.296735
vt 0.566890 0.081780
vt 0.566890 0.309891
vt 0.648785 0.081780
vt 0.657453 0.069377
vt 0.657453 0.322295
vt 0.648785 0.309891
vt 0.566890 0.014395
vt 0.566890 0.377275
vt 0.696768 0.013112
vt 0.826663 0.069464
vt 0.826751 0.081780
vt 0.696768 0.378559
vt 0.826751 0.309891
vt 0.826663 0.322207
vt 0.704539 0.001992
vt 0.566890 0.001992
vt 0.826717 0.014253
vt 0.839154 0.069464
vt 0.826717 0.377417
vt 0.566890 0.389679
vt 0.704539 0.389679
vt 0.839154 0.322207
vt 0.826861 0.001992
vt 0.839268 0.014395
vt 0.839265 0.377417
vt 0.826861 0.389679
vt 0.001839 0.659940
vt 0.182884 0.659940
vt 0.182884 0.888051
vt 0.001839 0.888051
vt 0.195240 0.659940
vt 0.195240 0.888051
vt 0.001839 0.081780
vt 0.139487 0.081780
vt 0.139487 0.309891
vt 0.001839 0.309891
vt 0.001839 0.014395
vt 0.139487 0.014395
vt 0.277135 0.081780
vt 0.277135 0.309891
vt 0.139487 0.377275
vt 0.001839 0.377275
vt 0.014242 0.001992
vt 0.139487 0.001992
vt 0.277135 0.014395
vt 0.277135 0.377275
vt 0.139487 0.389679
vt 0.014242 0.389679
vt 0.264732 0.001992
vt 0.264732 0.389679
vt 0.201703 0.659940
vt 0.414976 0.659940
vt 0.427380 0.673096
vt 0.427380 0.874895
vt 0.414976 0.888051
vt 0.201703 0.888051
vt 0.670563 0.473151
vt 0.695376 0.473151
vt 0.695376 0.701262
vt 0.670563 0.701262
vt 0.721356 0.460845
vt 0.670563 0.405767
vt 0.795806 0.405863
vt 0.721356 0.713568
vt 0.795806 0.768550
vt 0.670563 0.768646
vt 0.670563 0.393363
vt 0.795662 0.393363
vt 0.921141 0.460835
vt 0.921198 0.405625
vt 0.921141 0.713578
vt 0.921056 0.768646
vt 0.670563 0.781050
vt 0.795662 0.781050
vt 0.921053 0.393363
vt 0.707779 0.473151
vt 0.921053 0.473151
vt 0.707779 0.701262
vt 0.921053 0.701262
vt 0.921053 0.781050
vt 0.539656 0.518608
vt 0.539656 0.656256
vt 0.414411 0.656256
vt 0.414411 0.518608
vt 0.663738 0.518608
vt 0.664900 0.656256
vt 0.414411 0.393363
vt 0.539510 0.393461
vt 0.664900 0.396285
vt 0.158259 0.531011
vt 0.158259 0.393363
vt 0.283503 0.393363
vt 0.283503 0.531011
vt 0.408748 0.393363
vt 0.407586 0.531011
vt 0.283358 0.656157
vt 0.158259 0.656256
vt 0.408748 0.653334
vt 0.433768 0.873214
vt 0.433768 0.659940
vt 0.611733 0.659940
vt 0.614813 0.873214
vt 0.623939 0.784734
vt 0.801904 0.784734
vt 0.801904 0.998008
vt 0.620859 0.998008
vt 0.820307 0.784734
vt 0.820307 0.810714
vt 0.807950 0.798311
vt 0.840095 0.798311
vt 0.827739 0.810714
vt 0.827739 0.784734
vn -0.707107 -0.707107 -0.000000
vn -0.000000 -1.000000 -0.000000
vn -0.000000 -1.000000 -0.000000
vn -0.707107 -0.707107 -0.000000
vn -1.000000 0.000000 0.000000
vn -1.000000 0.000000 0.000000
vn 0.404610 -0.914489 -0.000000
vn 0.404610 -0.914489 -0.000000
vn 0.999983 0.005472 -0.001855
vn 0.999983 0.005472 0.001855
vn 0.055682 0.998448 0.000451
vn 0.055682 0.998449 -0.000451
vn 0.542061 0.673552 0.502492
vn 0.742848 0.073852 0.665374
vn 0.742848 0.073852 -0.665374
vn 0.542061 0.673552 -0.502492
vn 0.019651 0.885843 -0.463569
vn 0.019651 0.885843 0.463569
vn -0.731604 -0.672176 -0.113732
vn -0.000000 -1.000000 -0.000000
vn 0.448048 -0.881201 -0.150788
vn -0.731604 -0.672176 0.113732
vn -0.000000 -1.000000 -0.000000
vn -0.000000 -0.094369 0.995537
vn -0.089015 -0.127505 0.987835
vn 0.448048 -0.881202 0.150788
vn 0.082846 -0.128573 0.988234
vn -0.995965 0.089747 0.000000
vn -0.242588 0.970130 -0.000330
vn -0.110382 0.973324 -0.201135
vn -0.986095 0.080399 -0.145443
vn -0.995965 0.089747 0.000000
vn -0.242588 0.970129 0.000330
vn -0.986094 0.080399 0.145443
vn -0.110382 0.973325 0.201135
vn 0.009038 0.977120 0.212499
vn 0.051173 0.059361 0.996924
vn 0.074768 0.973045 0.218157
vn 0.160447 0.987034 0.004525
vn 0.160447 0.987034 -0.004525
vn 0.009042 0.977133 -0.212438
vn 0.074672 0.973125 -0.217834
vn 0.051173 0.059361 -0.996924
vn -0.089015 -0.127505 -0.987835
vn -0.988132 0.000000 -0.153610
vn -0.089785 0.000000 -0.995961
vn -0.084549 0.084977 -0.992789
vn 0.014740 0.988874 -0.148026
vn 0.001070 0.091787 -0.995778
vn 0.082163 0.987722 -0.132867
vn 0.082505 0.084426 -0.993008
vn 0.981571 -0.000081 -0.191098
vn 0.083038 -0.000009 -0.996546
vn 0.985229 0.067808 -0.157247
vn 0.082846 -0.128574 -0.988234
vn -0.089785 0.000000 0.995961
vn -0.988132 0.000000 0.153610
vn -0.084549 0.084977 0.992789
vn 0.001039 0.091550 0.995800
vn 0.014702 0.988894 0.147893
vn 0.082414 0.084320 0.993025
vn 0.082130 0.987755 0.132649
vn 0.981571 -0.000081 0.191099
vn 0.083039 -0.000009 0.996546
vn 0.985260 0.067702 0.157095
vn 0.985276 0.004855 0.170904
vn 0.979208 0.063649 0.192615
vn 0.985276 0.004855 -0.170905
vn 0.979213 0.063380 -0.192679
vn 0.000000 0.000000 -1.000000
vn -0.000000 -0.094369 -0.995537
vn 0.000000 0.000000 1.000000
s 1
g chair_frame
usemtl initialShadingGroup
f 3/59/1 2/60/2 6/61/3 7/62/4
f 4/1/5 3/2/1 7/3/4 8/4/6
f 2/60/2 5/65/7 9/66/8 6/61/3
f 62/23/9 53/24/10 52/25/11 63/26/12
f 1/53/13 21/54/14 22/55/15 10/56/16
f 10/77/16 64/78/17 63/79/12 52/80/11 51/81/18 1/82/13
f 2/60/2 3/59/1 26/63/19 72/64/20
f 5/65/7 2/60/2 72/64/20 37/71/21
f 39/68/22 71/67/23 13/73/24 38/74/25
f 71/67/23 48/72/26 47/76/27 13/73/24
f 15/10/28 16/17/29 31/19/30 30/11/31
f 16/17/29 15/10/28 18/9/32 17/18/33
f 17/18/33 18/9/32 44/16/34 43/22/35
f 19/90/36 21/104/14 56/105/37 55/97/38
f 21/54/14 20/57/39 23/58/40 22/55/15
f 22/102/15 24/87/41 67/95/42 66/103/43
f 25/12/44 26/6/19 28/5/45 27/13/46
f 27/13/46 28/5/45 30/11/31 29/20/47
f 29/99/47 31/92/30 33/91/48 32/100/49
f 32/100/49 33/91/48 58/98/50 60/106/51
f 34/35/52 35/41/53 60/49/51 59/43/54
f 35/41/53 34/35/52 37/33/21 36/42/55
f 39/7/22 38/14/25 41/15/56 40/8/57
f 40/8/57 41/15/56 42/21/58 44/16/34
f 43/88/35 42/93/58 46/94/59 45/89/60
f 45/89/60 46/94/59 69/101/61 68/96/62
f 47/46/27 48/34/26 50/38/63 49/47/64
f 49/47/64 50/38/63 70/45/65 69/52/61
f 51/29/18 54/30/66 57/36/67 56/37/37
f 55/44/38 57/36/67 59/43/54 58/50/50
f 61/31/68 64/32/17 66/39/43 65/40/69
f 65/40/69 67/48/42 68/51/62 70/45/65
f 11/107/70 12/108/71 25/109/44 27/110/46
f 27/110/46 29/113/47 32/114/49 11/107/70
f 11/107/70 35/111/53 36/112/55 12/108/71
f 8/4/6 18/9/32 15/10/28 4/1/5
f 17/83/33 23/84/40 20/85/39 16/86/29
f 41/116/56 38/117/25 13/118/24 14/119/72
f 14/119/72 46/122/59 42/123/58 41/116/56
f 13/118/24 47/120/27 49/121/64 14/119/72
f 3/2/1 4/1/5 28/5/45 26/6/19
f 4/1/5 15/10/28 30/11/31 28/5/45
f 16/86/29 20/85/39 19/90/36 33/91/48 31/92/30
f 19/90/36 55/97/38 58/98/50 33/91/48
f 8/4/6 7/3/4 39/7/22 40/8/57
f 18/9/32 8/4/6 40/8/57 44/16/34
f 9/28/8 62/23/9 48/34/26
f 67/95/42 24/87/41 45/89/60 68/96/62
f 1/125/13 51/126/18 56/127/37 21/128/14
f 57/36/67 54/30/66 34/35/52 59/43/54
f 35/111/53 11/107/70 32/114/49 60/115/51
f 66/129/43 64/130/17 10/131/16 22/132/15
f 14/119/72 49/121/64 69/124/61 46/122/59
f 50/38/63 61/31/68 65/40/69 70/45/65
f 24/87/41 23/84/40 17/83/33 43/88/35 45/89/60
f 54/30/66 53/24/10 37/33/21 34/35/52
f 19/133/36 20/134/39 21/135/14
f 22/136/15 23/137/40 24/138/41
f 29/20/47 30/11/31 31/19/30
f 42/21/58 43/22/35 44/16/34
f 51/29/18 52/25/11 53/24/10 54/30/66
f 55/44/38 56/37/37 57/36/67
f 58/50/50 59/43/54 60/49/51
f 61/31/68 62/23/9 63/26/12 64/32/17
f 65/40/69 66/39/43 67/48/42
f 68/51/62 69/52/61 70/45/65
f 5/27/7 53/24/10 62/23/9 9/28/8
f 7/62/4 6/61/3 71/67/23 39/68/22
f 6/61/3 9/66/8 48/72/26 71/67/23
f 72/64/20 26/63/19 25/69/44 12/70/71
f 37/71/21 72/64/20 12/70/71 36/75/55
f 37/33/21 53/24/10 5/27/7
f 48/34/26 62/23/9 61/31/68 50/38/63
