# This file uses meters as units for non-parametric coordinates.

mtllib Closed_Book_01.mtl
g default
v -10.448013 -4.305265 9.546034
v 10.448013 -4.305265 9.546034
v -10.448013 4.305265 9.546034
v 10.448013 4.305265 9.546034
v -10.448013 4.305265 -8.634735
v 10.448013 4.305265 -8.634735
v -10.448013 -4.305265 -8.634735
v 10.448013 -4.305265 -8.634735
v -10.448013 4.305265 -7.267664
v 10.448013 4.305265 -7.267664
v 10.448013 -4.305265 -7.267664
v -10.448013 -4.305265 -7.267664
v -10.448013 2.992570 9.546034
v 10.448013 2.992570 9.546034
v 10.448013 2.992570 -7.267664
v 10.448013 2.992570 -9.546034
v -10.448013 2.992570 -9.546034
v -10.448013 2.992570 -7.267664
v -10.448013 -3.060593 9.546034
v 10.448013 -3.060593 9.546034
v 10.448013 -3.060593 -7.267664
v 10.448013 -3.060593 -9.546034
v -10.448013 -3.060593 -9.546034
v -10.448013 -3.060593 -7.267664
v -9.811112 -2.876095 9.033559
v 9.811099 -2.876095 9.033559
v 9.811099 2.808072 9.033559
v -9.811112 2.808072 9.033559
v 9.811099 -2.876095 -6.755198
v 9.811099 2.808072 -6.755198
v -9.811112 2.808072 -6.755198
v -9.811112 -2.876095 -6.755198
vt 0.007127 0.345715
vt 0.007127 0.008076
vt 0.028338 0.008076
vt 0.028338 0.345715
vt 0.317176 0.345715
vt 0.317176 0.008076
vt 0.339265 0.008076
vt 0.339265 0.345715
vt 0.353990 0.008076
vt 0.353990 0.345715
vt 0.387304 0.345715
vt 0.387304 0.008076
vt 0.409393 0.008076
vt 0.409393 0.345715
vt 0.836961 0.400797
vt 0.815751 0.400797
vt 0.815751 0.363983
vt 0.836961 0.378708
vt 0.854123 0.991924
vt 0.854123 0.955110
vt 0.875334 0.955110
vt 0.875334 0.977199
vt 0.045500 0.345715
vt 0.045500 0.008076
vt 0.815751 0.672474
vt 0.836961 0.672474
vt 0.681069 0.008076
vt 0.681069 0.345715
vt 0.854123 0.683434
vt 0.875334 0.683434
vt 0.588196 0.679212
vt 0.588196 0.362156
vt 0.680041 0.362156
vt 0.680041 0.679212
vt 0.720925 0.664193
vt 0.720925 0.409078
vt 0.812770 0.409078
vt 0.812770 0.664193
vt 0.717944 0.400797
vt 0.717944 0.363983
vt 0.699659 0.345715
vt 0.699659 0.008076
vt 0.797466 0.008076
vt 0.797466 0.345715
vt 0.756316 0.991924
vt 0.756316 0.955110
vt 0.851142 0.691714
vt 0.851142 0.946829
vt 0.759297 0.946829
vt 0.759297 0.691714
vt 0.814777 0.345715
vt 0.814777 0.008076
vt 0.834888 0.008076
vt 0.834888 0.345715
vt 0.697832 0.672474
vt 0.697832 0.400797
vt 0.717944 0.672474
vt 0.697832 0.378708
vt 0.372579 0.345715
vt 0.372579 0.008076
vt 0.736205 0.977199
vt 0.736205 0.955110
vt 0.756316 0.683433
vt 0.736205 0.683434
vt 0.007127 0.699795
vt 0.007127 0.362156
vt 0.015408 0.372447
vt 0.015408 0.689504
vt 0.569338 0.362156
vt 0.569338 0.699795
vt 0.561057 0.689504
vt 0.561057 0.372447
vt 0.278803 0.362156
vt 0.270523 0.372447
vt 0.297662 0.362156
vt 0.305942 0.372447
vt 0.297662 0.699795
vt 0.305942 0.689504
vt 0.278803 0.699795
vt 0.270523 0.689504
vn 0.000000 0.000000 1.000000
vn 0.000000 0.000000 1.000000
vn 0.000000 0.000000 1.000000
vn 0.000000 0.000000 1.000000
vn 0.000000 1.000000 0.000000
vn 0.000000 1.000000 0.000000
vn 0.000000 1.000000 0.000000
vn 0.000000 1.000000 0.000000
vn 0.000000 0.570274 -0.821455
vn 0.000000 0.570274 -0.821455
vn 0.000000 0.122784 -0.992433
vn 0.000000 0.122784 -0.992433
vn 0.000000 -1.000000 0.000000
vn 0.000000 -1.000000 0.000000
vn 0.000000 -1.000000 0.000000
vn 0.000000 -1.000000 0.000000
vn 1.000000 0.000000 0.000000
vn 1.000000 0.000000 0.000000
vn 1.000000 0.000000 0.000000
vn 1.000000 0.000000 0.000000
vn -1.000000 0.000000 0.000000
vn -1.000000 0.000000 0.000000
vn -1.000000 0.000000 0.000000
vn -1.000000 0.000000 0.000000
vn 0.000000 1.000000 0.000000
vn 0.000000 1.000000 0.000000
vn 0.000000 1.000000 0.000000
vn 0.000000 1.000000 0.000000
vn 1.000000 0.000000 0.000000
vn 1.000000 0.000000 0.000000
vn 1.000000 0.000000 0.000000
vn 1.000000 0.000000 0.000000
vn 0.000000 -1.000000 0.000000
vn 0.000000 -1.000000 0.000000
vn 0.000000 -1.000000 0.000000
vn 0.000000 -1.000000 0.000000
vn -1.000000 0.000000 0.000000
vn -1.000000 0.000000 0.000000
vn -1.000000 0.000000 0.000000
vn -1.000000 0.000000 0.000000
vn 0.000000 0.000001 1.000000
vn 0.000000 0.000001 1.000000
vn 0.000000 0.000001 1.000000
vn 0.000000 0.000001 1.000000
vn 1.000000 0.000000 0.000000
vn 1.000000 0.000000 0.000000
vn 1.000000 0.000000 0.000000
vn 1.000000 0.000000 0.000000
vn 1.000000 0.000000 0.000000
vn 1.000000 0.000000 0.000000
vn 1.000000 0.000000 0.000000
vn 1.000000 0.000000 0.000000
vn 0.000000 0.122784 -0.992433
vn 0.000000 0.122784 -0.992433
vn 0.000000 -0.123911 -0.992293
vn 0.000000 -0.123911 -0.992293
vn -1.000000 0.000000 0.000000
vn -1.000000 0.000000 0.000000
vn -1.000000 0.000000 0.000000
vn -1.000000 0.000000 0.000000
vn -1.000000 0.000000 0.000000
vn -1.000000 0.000000 0.000000
vn -1.000000 0.000000 0.000000
vn -1.000000 0.000000 0.000000
vn 0.000000 -0.000005 1.000000
vn 0.000000 -0.000005 1.000000
vn 0.000000 -0.000005 1.000000
vn 0.000000 -0.000005 1.000000
vn 1.000000 0.000000 0.000000
vn 1.000000 0.000000 0.000000
vn 1.000000 0.000000 0.000000
vn 1.000000 0.000000 0.000000
vn 1.000000 0.000000 0.000000
vn 1.000000 0.000000 0.000000
vn 1.000000 0.000000 0.000000
vn 1.000000 0.000000 0.000000
vn 0.000000 -0.123911 -0.992293
vn 0.000000 -0.123911 -0.992293
vn 0.000000 -0.590749 -0.806856
vn 0.000000 -0.590749 -0.806856
vn -1.000000 0.000000 0.000000
vn -1.000000 0.000000 0.000000
vn -1.000000 0.000000 0.000000
vn -1.000000 0.000000 0.000000
vn -1.000000 0.000000 0.000000
vn -1.000000 0.000000 0.000000
vn -1.000000 0.000000 0.000000
vn -1.000000 0.000000 0.000000
vn 0.000000 0.940884 0.338730
vn 0.000000 0.940884 0.338730
vn 0.000000 0.940884 0.338730
vn 0.000000 0.940884 0.338730
vn 0.000000 -0.940883 0.338731
vn 0.000000 -0.940883 0.338731
vn 0.000000 -0.940883 0.338731
vn 0.000000 -0.940883 0.338731
vn 0.278241 0.960511 0.000000
vn 0.278241 0.960511 0.000000
vn 0.278241 0.960511 0.000000
vn 0.278241 0.960511 0.000000
vn 0.626895 0.000000 0.779104
vn 0.626895 0.000000 0.779104
vn 0.626895 0.000000 0.779104
vn 0.626895 0.000000 0.779104
vn 0.278241 -0.960511 0.000000
vn 0.278241 -0.960511 0.000000
vn 0.278241 -0.960511 0.000000
vn 0.278241 -0.960511 0.000000
vn -0.278241 -0.960511 0.000000
vn -0.278241 -0.960511 0.000000
vn -0.278241 -0.960511 0.000000
vn -0.278241 -0.960511 0.000000
vn -0.626895 0.000000 0.779104
vn -0.626895 0.000000 0.779104
vn -0.626895 0.000000 0.779104
vn -0.626895 0.000000 0.779104
vn -0.278241 0.960511 0.000000
vn -0.278241 0.960511 0.000000
vn -0.278241 0.960511 0.000000
vn -0.278241 0.960511 0.000000
s off
g closed_book_01:pCube8
usemtl initialShadingGroup
f 13/1/1 14/2/2 4/3/3 3/4/4
f 9/5/5 10/6/6 6/7/7 5/8/8
f 5/8/9 6/7/10 16/9/11 17/10/12
f 7/11/13 8/12/14 11/13/15 12/14/16
f 10/15/17 15/16/18 16/17/19 6/18/20
f 17/19/21 18/20/22 9/21/23 5/22/24
f 3/23/25 4/24/26 10/6/27 9/5/28
f 14/25/29 15/16/30 10/15/31 4/26/32
f 12/14/33 11/13/34 2/27/35 1/28/36
f 9/21/37 18/20/38 13/29/39 3/30/40
f 25/31/41 26/32/42 27/33/43 28/34/44
f 26/35/45 29/36/46 30/37/47 27/38/48
f 16/17/49 15/16/50 21/39/51 22/40/52
f 17/41/53 16/42/54 22/43/55 23/44/56
f 23/45/57 24/46/58 18/20/59 17/19/60
f 28/47/61 31/48/62 32/49/63 25/50/64
f 1/51/65 2/52/66 20/53/67 19/54/68
f 2/55/69 11/56/70 21/39/71 20/57/72
f 22/40/73 21/39/74 11/56/75 8/58/76
f 23/59/77 22/60/78 8/12/79 7/11/80
f 7/61/81 12/62/82 24/46/83 23/45/84
f 19/63/85 24/46/86 12/62/87 1/64/88
f 19/65/89 20/66/90 26/67/91 25/68/92
f 14/69/93 13/70/94 28/71/95 27/72/96
f 20/66/97 21/73/98 29/74/99 26/67/100
f 21/39/101 15/16/102 30/37/103 29/36/104
f 15/75/105 14/69/106 27/72/107 30/76/108
f 13/70/109 18/77/110 31/78/111 28/71/112
f 18/20/113 24/46/114 32/49/115 31/48/116
f 24/79/117 19/65/118 25/68/119 32/80/120
