# This file uses meters as units for non-parametric coordinates.

mtllib Corkboard_01.mtl
g default
v -3.130857 -41.016233 50.000000
v 3.130857 -41.016233 50.000000
v -3.130857 41.016233 50.000000
v 3.130857 41.016233 50.000000
v -3.130857 41.016233 -50.000000
v 3.130857 41.016233 -50.000000
v -3.130857 -41.016233 -50.000000
v 3.130857 -41.016233 -50.000000
v 3.130857 -37.860569 -46.153152
v 3.130857 -37.860569 46.153152
v 3.130857 37.860569 -46.153152
v 3.130857 37.860569 46.153152
v 1.539602 -37.860569 -46.153152
v 1.539602 -37.860569 46.153152
v 1.539602 37.860569 -46.153152
v 1.539602 37.860569 46.153152
vt 0.001992 0.645416
vt 0.295323 0.645416
vt 0.295323 0.938746
vt 0.001992 0.938746
vt 0.356314 0.323645
vt 0.674093 0.323645
vt 0.674093 0.641424
vt 0.356314 0.641424
vt 0.032399 0.323645
vt 0.350179 0.323645
vt 0.337954 0.335869
vt 0.044624 0.335869
vt 0.350179 0.641424
vt 0.337954 0.629200
vt 0.032399 0.641424
vt 0.044624 0.629200
vt 0.327662 0.001874
vt 0.645441 0.001874
vt 0.645441 0.319653
vt 0.327662 0.319653
vt 0.680229 0.323645
vt 0.998008 0.323645
vt 0.998008 0.641424
vt 0.680229 0.641424
vt 0.383081 0.645416
vt 0.383081 0.938746
vt 0.302326 0.938746
vt 0.302326 0.645416
vt 0.558487 0.645416
vt 0.558487 0.938746
vt 0.477731 0.938746
vt 0.477731 0.645416
vt 0.001992 0.001874
vt 0.319771 0.001874
vt 0.319771 0.319653
vt 0.001992 0.319653
vt 0.653137 0.001874
vt 0.970917 0.001874
vt 0.970917 0.319653
vt 0.653137 0.319653
vt 0.470784 0.645416
vt 0.470784 0.938746
vt 0.390029 0.938746
vt 0.390029 0.645416
vt 0.646190 0.645416
vt 0.646190 0.938746
vt 0.565434 0.938746
vt 0.565434 0.645416
vn 0.000000 0.000000 1.000000
vn 0.000000 0.000000 1.000000
vn 0.000000 0.000000 1.000000
vn 0.000000 0.000000 1.000000
vn 0.000000 1.000000 0.000000
vn 0.000000 1.000000 0.000000
vn 0.000000 1.000000 0.000000
vn 0.000000 1.000000 0.000000
vn 0.000000 0.000000 -1.000000
vn 0.000000 0.000000 -1.000000
vn 0.000000 0.000000 -1.000000
vn 0.000000 0.000000 -1.000000
vn 0.000000 -1.000000 0.000000
vn 0.000000 -1.000000 0.000000
vn 0.000000 -1.000000 0.000000
vn 0.000000 -1.000000 0.000000
vn 1.000000 0.000000 0.000000
vn 1.000000 0.000000 0.000000
vn 1.000000 0.000000 0.000000
vn 1.000000 0.000000 0.000000
vn -1.000000 0.000000 0.000000
vn -1.000000 0.000000 0.000000
vn -1.000000 0.000000 0.000000
vn -1.000000 0.000000 0.000000
vn 1.000000 -0.000000 0.000000
vn 1.000000 -0.000000 0.000000
vn 1.000000 -0.000000 0.000000
vn 1.000000 -0.000000 0.000000
vn 1.000000 0.000000 0.000000
vn 1.000000 0.000000 0.000000
vn 1.000000 0.000000 0.000000
vn 1.000000 0.000000 0.000000
vn 1.000000 0.000000 0.000000
vn 1.000000 0.000000 0.000000
vn 1.000000 0.000000 0.000000
vn 1.000000 0.000000 0.000000
vn 1.000000 0.000000 0.000000
vn 1.000000 0.000000 0.000000
vn 1.000000 0.000000 0.000000
vn 1.000000 0.000000 0.000000
vn 0.000000 1.000000 0.000000
vn 0.000000 1.000000 0.000000
vn 0.000000 1.000000 0.000000
vn 0.000000 1.000000 0.000000
vn 0.000000 0.000000 1.000000
vn 0.000000 0.000000 1.000000
vn 0.000000 0.000000 1.000000
vn 0.000000 0.000000 1.000000
vn 0.000000 -1.000000 0.000000
vn 0.000000 -1.000000 0.000000
vn 0.000000 -1.000000 0.000000
vn 0.000000 -1.000000 0.000000
vn 0.000000 0.000000 -1.000000
vn 0.000000 0.000000 -1.000000
vn 0.000000 0.000000 -1.000000
vn 0.000000 0.000000 -1.000000
s off
g pCube22
usemtl initialShadingGroup
f 1/33/1 2/34/2 4/35/3 3/36/4
f 3/17/5 4/18/6 6/19/7 5/20/8
f 5/37/9 6/38/10 8/39/11 7/40/12
f 7/21/13 8/22/14 2/23/15 1/24/16
f 14/1/17 13/2/18 15/3/19 16/4/20
f 7/5/21 1/6/22 3/7/23 5/8/24
f 2/9/25 8/10/26 9/11/27 10/12/28
f 8/10/29 6/13/30 11/14/31 9/11/32
f 6/13/33 4/15/34 12/16/35 11/14/36
f 4/15/37 2/9/38 10/12/39 12/16/40
f 10/25/41 9/26/42 13/27/43 14/28/44
f 9/41/45 11/42/46 15/43/47 13/44/48
f 11/29/49 12/30/50 16/31/51 15/32/52
f 12/45/53 10/46/54 14/47/55 16/48/56
