# This file uses meters as units for non-parametric coordinates.

mtllib couch_back_cushion_01.mtl
g default
v -11.468732 26.943019 28.253413
v -8.028455 26.943019 31.693689
v -8.028455 29.493178 28.253413
v -8.028455 -29.493176 28.253413
v -8.028455 -26.943010 31.693689
v -11.468732 -26.943010 28.253413
v 8.028445 29.493178 28.253413
v 8.028445 26.943019 31.693689
v 11.468729 26.943019 28.253413
v 11.468729 -26.943010 28.253413
v 8.028445 -26.943010 31.693689
v 8.028445 -29.493176 28.253413
v 8.028445 29.493178 -28.253367
v 11.468729 26.943019 -28.253367
v 8.028445 26.943019 -31.693645
v 8.028445 -26.943010 -31.693645
v 11.468729 -26.943010 -28.253367
v 8.028445 -29.493176 -28.253367
v -8.028455 29.493178 -28.253367
v -8.028455 26.943019 -31.693645
v -11.468732 26.943019 -28.253367
v -11.468732 -26.943010 -28.253367
v -8.028455 -26.943010 -31.693645
v -8.028455 -29.493176 -28.253367
vt 0.322738 0.001992
vt 0.322738 0.052877
vt 0.020295 0.052877
vt 0.020295 0.001992
vt 0.341152 0.052877
vt 0.322738 0.290377
vt 0.020295 0.290377
vt 0.001882 0.052877
vt 0.341152 0.290377
vt 0.322738 0.341262
vt 0.020295 0.341262
vt 0.001882 0.290377
vt 0.621906 0.395918
vt 0.621906 0.345033
vt 0.924349 0.345033
vt 0.924349 0.395918
vt 0.603492 0.395918
vt 0.942762 0.395918
vt 0.924349 0.633417
vt 0.621906 0.633417
vt 0.603492 0.633417
vt 0.942762 0.633417
vt 0.621906 0.684303
vt 0.924349 0.684303
vt 0.001882 0.998008
vt 0.001882 0.688073
vt 0.304325 0.688073
vt 0.304325 0.998008
vt 0.311365 0.998008
vt 0.311365 0.688073
vt 0.613808 0.688073
vt 0.613808 0.998008
vt 0.348186 0.052877
vt 0.348186 0.001992
vt 0.658121 0.001992
vt 0.658121 0.052877
vt 0.658121 0.290377
vt 0.348186 0.290377
vt 0.348186 0.341262
vt 0.658121 0.341262
vt 0.287762 0.395918
vt 0.287762 0.345033
vt 0.597697 0.345033
vt 0.597697 0.395918
vt 0.597697 0.633417
vt 0.287762 0.633417
vt 0.287762 0.684303
vt 0.597697 0.684303
vn -0.996800 0.057897 0.055107
vn -0.126232 0.991263 0.038252
vn -0.126232 0.991263 -0.038252
vn -0.996800 0.057897 -0.055107
vn -0.169823 0.054036 0.983992
vn -0.996800 -0.057897 0.055107
vn -0.169823 -0.054036 0.983992
vn 0.169823 0.054036 0.983992
vn 0.126232 0.991263 0.038252
vn -0.126232 -0.991263 0.038253
vn -0.996800 -0.057897 -0.055107
vn -0.126232 -0.991263 -0.038253
vn 0.126232 -0.991263 0.038253
vn 0.169823 -0.054036 0.983992
vn 0.996800 0.057897 0.055107
vn 0.996800 0.057897 -0.055107
vn 0.126232 0.991263 -0.038252
vn 0.996800 -0.057897 0.055107
vn 0.126232 -0.991263 -0.038253
vn 0.996800 -0.057897 -0.055107
vn 0.169823 0.054036 -0.983992
vn -0.169823 0.054036 -0.983992
vn 0.169823 -0.054036 -0.983992
vn -0.169823 -0.054036 -0.983992
s 1
g thin_cushion
usemtl initialShadingGroup
f 1/1/1 3/2/2 19/3/3 21/4/4
f 2/33/5 1/34/1 6/35/6 5/36/7
f 3/2/2 2/5/5 8/9/8 7/6/9
f 4/13/10 6/14/6 22/15/11 24/16/12
f 5/17/7 4/13/10 12/20/13 11/21/14
f 7/6/9 9/10/15 14/11/16 13/7/17
f 9/39/15 8/38/8 11/37/14 10/40/18
f 10/23/18 12/20/13 18/19/19 17/24/20
f 13/7/17 15/12/21 20/8/22 19/3/3
f 15/41/21 14/42/16 17/43/20 16/44/23
f 16/22/23 18/19/19 24/16/12 23/18/24
f 21/47/4 20/46/22 23/45/24 22/48/11
f 2/33/5 5/36/7 11/37/14 8/38/8
f 9/25/15 10/26/18 17/27/20 14/28/16
f 15/41/21 16/44/23 23/45/24 20/46/22
f 21/29/4 22/30/11 6/31/6 1/32/1
f 4/13/10 24/16/12 18/19/19 12/20/13
f 19/3/3 3/2/2 7/6/9 13/7/17
f 1/1/1 2/5/5 3/2/2
f 4/13/10 5/17/7 6/14/6
f 7/6/9 8/9/8 9/10/15
f 10/23/18 11/21/14 12/20/13
f 13/7/17 14/11/16 15/12/21
f 16/22/23 17/24/20 18/19/19
f 19/3/3 20/8/22 21/4/4
f 22/15/11 23/18/24 24/16/12
