# This file uses meters as units for non-parametric coordinates.

mtllib couch_frame_01.mtl
g default
v -31.976135 -20.251997 -100.000000
v 0.000000 -50.000000 -100.000000
v -50.000000 -50.000000 -100.000000
v -50.000000 0.000000 -100.000000
v 50.000000 -50.000000 -100.000000
v 0.000000 -50.000000 100.000000
v -50.000000 -50.000000 100.000000
v -50.000000 0.000000 100.000000
v 50.000000 -50.000000 100.000000
v -31.976135 -20.251997 100.000000
v 0.000000 0.000000 -128.982544
v 0.000000 -50.000000 -128.982544
v 0.000000 -50.000000 128.982544
v 0.000000 0.000000 128.982544
v -50.000000 45.494484 -100.000000
v -45.494507 50.000000 -100.000000
v -45.494507 50.000000 100.000000
v -50.000000 45.494484 100.000000
v -27.044373 50.000000 -104.470032
v -36.481445 50.000000 -100.000000
v -31.976135 45.511597 -100.000000
v -31.976135 45.511597 100.000000
v -36.481445 50.000000 100.000000
v -27.044373 50.000000 104.470032
v -45.494507 -50.000000 -128.982544
v -50.000000 -50.000000 -124.477051
v -45.494507 0.000000 -128.982544
v -50.000000 0.000000 -124.477051
v -45.494507 45.494484 -128.982544
v -50.000000 45.494484 -124.477051
v -45.494507 50.000000 -124.477051
v -0.052917 45.458748 -128.982544
v -0.000916 49.928810 -124.441833
v 50.000000 -2.822552 -124.943237
v 45.072205 0.000000 -128.982544
v 45.494507 -50.000000 -128.982544
v 50.000000 -50.000000 -124.477051
v -45.494507 -50.000000 128.982544
v -50.000000 -50.000000 124.477051
v -50.000000 0.000000 124.477051
v -45.494507 0.000000 128.982544
v -45.494507 45.494484 128.982544
v -45.494507 50.000000 124.477051
v -50.000000 45.494484 124.477051
v -0.000916 49.928810 124.441895
v -0.052917 45.458748 128.982544
v 45.494507 -50.000000 128.982544
v 50.000000 -50.000000 124.477051
v 45.072205 0.000000 128.982544
v 50.000000 -2.822552 124.943237
v 45.494507 -20.251997 -100.000000
v 50.000000 -20.251997 -95.221191
v 50.000000 -25.030817 -100.000000
v 50.000000 -17.103699 -104.505493
v 45.526611 48.898445 -104.473816
v 45.494507 44.392929 -100.000000
v 50.000000 44.361023 -104.473816
v 45.495728 48.939827 -124.477051
v 50.000000 44.380928 -124.528625
v 45.494507 44.433113 -128.982544
v 50.000000 -17.103699 104.505493
v 50.000000 -25.030817 100.000000
v 50.000000 -20.251997 95.221191
v 45.494507 -20.251997 100.000000
v 50.000000 44.361031 104.473816
v 45.494507 44.392937 100.000000
v 45.526611 48.898453 104.473816
v 45.547302 48.938629 124.528564
v 45.494507 44.433121 128.982544
v 50.000000 44.380936 124.528564
v 0.000000 -50.000000 124.477051
v 0.000000 -50.000000 -124.477051
vt 0.331918 0.494523
vt 0.224367 0.494523
vt 0.224367 0.064320
vt 0.331918 0.064320
vt 0.331918 0.547174
vt 0.224367 0.547174
vt 0.224367 0.011670
vt 0.331918 0.011670
vt 0.429778 0.064320
vt 0.429778 0.494523
vt 0.429778 0.547174
vt 0.224367 0.556865
vt 0.331918 0.556865
vt 0.224367 0.001978
vt 0.331918 0.001978
vt 0.429778 0.011670
vt 0.439469 0.494523
vt 0.439469 0.064320
vt 0.439469 0.547174
vt 0.429778 0.556865
vt 0.429778 0.001978
vt 0.439469 0.011670
vt 0.500257 0.494523
vt 0.500257 0.064320
vt 0.510536 0.074599
vt 0.510536 0.484244
vt 0.446548 0.064320
vt 0.446548 0.494523
vt 0.510536 0.064320
vt 0.517308 0.054629
vt 0.517308 0.504215
vt 0.510536 0.494523
vt 0.446548 0.011670
vt 0.446548 0.547174
vt 0.548027 0.010667
vt 0.649520 0.054697
vt 0.649589 0.064320
vt 0.548027 0.548176
vt 0.649589 0.494523
vt 0.649520 0.504147
vt 0.554099 0.001978
vt 0.446548 0.001978
vt 0.649563 0.011559
vt 0.659280 0.054697
vt 0.649563 0.547285
vt 0.446548 0.556865
vt 0.554099 0.556865
vt 0.659280 0.504147
vt 0.649675 0.001978
vt 0.659369 0.011670
vt 0.659366 0.547285
vt 0.649675 0.556865
vt 0.846895 0.560857
vt 0.988354 0.560857
vt 0.988354 0.991060
vt 0.846895 0.991060
vt 0.998008 0.560857
vt 0.998008 0.991060
vt 0.001992 0.064320
vt 0.109543 0.064320
vt 0.109543 0.494523
vt 0.001992 0.494523
vt 0.001992 0.011670
vt 0.109543 0.011670
vt 0.217094 0.064320
vt 0.217094 0.494523
vt 0.109543 0.547174
vt 0.001992 0.547174
vt 0.011683 0.001978
vt 0.109543 0.001978
vt 0.217094 0.011670
vt 0.217094 0.547174
vt 0.109543 0.556865
vt 0.011683 0.556865
vt 0.207402 0.001978
vt 0.207402 0.556865
vt 0.664428 0.560857
vt 0.831069 0.560857
vt 0.840760 0.571136
vt 0.840760 0.980780
vt 0.831069 0.991060
vt 0.664428 0.991060
vt 0.666780 0.064320
vt 0.686167 0.064320
vt 0.686167 0.494523
vt 0.666780 0.494523
vt 0.706466 0.054705
vt 0.666780 0.011670
vt 0.764637 0.011745
vt 0.706466 0.504138
vt 0.764637 0.547098
vt 0.666780 0.547174
vt 0.666780 0.001978
vt 0.764525 0.001978
vt 0.862567 0.054697
vt 0.862612 0.011559
vt 0.862567 0.504146
vt 0.862501 0.547174
vt 0.666780 0.556865
vt 0.764525 0.556865
vt 0.862498 0.001978
vt 0.695858 0.064320
vt 0.862498 0.064320
vt 0.695858 0.494523
vt 0.862498 0.494523
vt 0.862498 0.556865
vt 0.560434 0.658716
vt 0.560434 0.766267
vt 0.462574 0.766267
vt 0.462574 0.658716
vt 0.657385 0.658716
vt 0.658293 0.766267
vt 0.462574 0.560857
vt 0.560320 0.560934
vt 0.658293 0.563140
vt 0.260720 0.668407
vt 0.260720 0.560857
vt 0.358580 0.560857
vt 0.358580 0.668407
vt 0.456439 0.560857
vt 0.455531 0.668407
vt 0.358466 0.766190
vt 0.260720 0.766267
vt 0.456439 0.763984
vt 0.113127 0.727497
vt 0.113127 0.560857
vt 0.252179 0.560857
vt 0.254585 0.727497
vt 0.004398 0.731489
vt 0.143451 0.731489
vt 0.143451 0.898129
vt 0.001992 0.898129
vt 0.159962 0.731489
vt 0.159962 0.751788
vt 0.150307 0.742097
vt 0.177502 0.742097
vt 0.167848 0.751788
vt 0.167848 0.731489
vn -0.707107 -0.707107 -0.000000
vn -0.000000 -1.000000 -0.000000
vn -0.000000 -1.000000 -0.000000
vn -0.707107 -0.707107 -0.000000
vn -1.000000 0.000000 0.000000
vn -1.000000 0.000000 0.000000
vn 0.426958 -0.904271 -0.000000
vn 0.426958 -0.904271 -0.000000
vn 0.999996 0.002720 -0.000922
vn 0.999996 0.002720 0.000922
vn 0.056737 0.998389 0.000187
vn 0.056737 0.998389 -0.000187
vn 0.608890 0.758002 0.233850
vn 0.934833 0.073635 0.347369
vn 0.934833 0.073635 -0.347369
vn 0.608890 0.758002 -0.233850
vn 0.008976 0.977283 -0.211750
vn 0.008976 0.977283 0.211750
vn -0.731604 -0.672176 -0.113732
vn -0.000000 -1.000000 -0.000000
vn 0.448048 -0.881201 -0.150788
vn -0.731604 -0.672176 0.113732
vn -0.000000 -1.000000 -0.000000
vn -0.000000 -0.094369 0.995537
vn -0.089015 -0.127505 0.987835
vn 0.448048 -0.881202 0.150788
vn 0.082846 -0.128573 0.988234
vn -0.995965 0.089746 0.000000
vn -0.276356 0.961055 -0.000180
vn -0.110382 0.973325 -0.201135
vn -0.986095 0.080399 -0.145443
vn -0.995965 0.089746 0.000000
vn -0.276356 0.961055 0.000180
vn -0.986094 0.080399 0.145443
vn -0.110382 0.973325 0.201135
vn 0.009037 0.977120 0.212499
vn 0.051173 0.059361 0.996924
vn 0.074768 0.973046 0.218157
vn 0.225192 0.974311 0.002660
vn 0.225192 0.974311 -0.002660
vn 0.009042 0.977133 -0.212438
vn 0.074672 0.973125 -0.217834
vn 0.051173 0.059361 -0.996924
vn -0.089015 -0.127505 -0.987835
vn -0.988132 0.000000 -0.153610
vn -0.089784 0.000000 -0.995961
vn -0.084547 0.084977 -0.992789
vn 0.014741 0.988874 -0.148026
vn 0.001070 0.091787 -0.995778
vn 0.082163 0.987722 -0.132867
vn 0.082504 0.084426 -0.993008
vn 0.981571 -0.000081 -0.191098
vn 0.083037 -0.000009 -0.996547
vn 0.985229 0.067808 -0.157247
vn 0.082846 -0.128574 -0.988234
vn -0.089785 0.000000 0.995961
vn -0.988132 0.000000 0.153610
vn -0.084549 0.084977 0.992789
vn 0.001039 0.091550 0.995800
vn 0.014702 0.988894 0.147893
vn 0.082414 0.084320 0.993025
vn 0.082130 0.987755 0.132649
vn 0.981571 -0.000081 0.191099
vn 0.083039 -0.000009 0.996546
vn 0.985260 0.067702 0.157095
vn 0.985276 0.004855 0.170903
vn 0.979208 0.063649 0.192614
vn 0.985276 0.004855 -0.170905
vn 0.979213 0.063380 -0.192679
vn 0.000000 0.000000 -1.000000
vn -0.000000 -0.094369 -0.995537
vn 0.000000 0.000000 1.000000
s 1
g couch_frame
usemtl initialShadingGroup
f 3/59/1 2/60/2 6/61/3 7/62/4
f 4/1/5 3/2/1 7/3/4 8/4/6
f 2/60/2 5/65/7 9/66/8 6/61/3
f 62/23/9 53/24/10 52/25/11 63/26/12
f 1/53/13 21/54/14 22/55/15 10/56/16
f 10/77/16 64/78/17 63/79/12 52/80/11 51/81/18 1/82/13
f 2/60/2 3/59/1 26/63/19 72/64/20
f 5/65/7 2/60/2 72/64/20 37/71/21
f 39/68/22 71/67/23 13/73/24 38/74/25
f 71/67/23 48/72/26 47/76/27 13/73/24
f 15/10/28 16/17/29 31/19/30 30/11/31
f 16/17/29 15/10/28 18/9/32 17/18/33
f 17/18/33 18/9/32 44/16/34 43/22/35
f 19/90/36 21/104/14 56/105/37 55/97/38
f 21/54/14 20/57/39 23/58/40 22/55/15
f 22/102/15 24/87/41 67/95/42 66/103/43
f 25/12/44 26/6/19 28/5/45 27/13/46
f 27/13/46 28/5/45 30/11/31 29/20/47
f 29/99/47 31/92/30 33/91/48 32/100/49
f 32/100/49 33/91/48 58/98/50 60/106/51
f 34/35/52 35/41/53 60/49/51 59/43/54
f 35/41/53 34/35/52 37/33/21 36/42/55
f 39/7/22 38/14/25 41/15/56 40/8/57
f 40/8/57 41/15/56 42/21/58 44/16/34
f 43/88/35 42/93/58 46/94/59 45/89/60
f 45/89/60 46/94/59 69/101/61 68/96/62
f 47/46/27 48/34/26 50/38/63 49/47/64
f 49/47/64 50/38/63 70/45/65 69/52/61
f 51/29/18 54/30/66 57/36/67 56/37/37
f 55/44/38 57/36/67 59/43/54 58/50/50
f 61/31/68 64/32/17 66/39/43 65/40/69
f 65/40/69 67/48/42 68/51/62 70/45/65
f 11/107/70 12/108/71 25/109/44 27/110/46
f 27/110/46 29/113/47 32/114/49 11/107/70
f 11/107/70 35/111/53 36/112/55 12/108/71
f 8/4/6 18/9/32 15/10/28 4/1/5
f 17/83/33 23/84/40 20/85/39 16/86/29
f 41/116/56 38/117/25 13/118/24 14/119/72
f 14/119/72 46/122/59 42/123/58 41/116/56
f 13/118/24 47/120/27 49/121/64 14/119/72
f 3/2/1 4/1/5 28/5/45 26/6/19
f 4/1/5 15/10/28 30/11/31 28/5/45
f 16/86/29 20/85/39 19/90/36 33/91/48 31/92/30
f 19/90/36 55/97/38 58/98/50 33/91/48
f 8/4/6 7/3/4 39/7/22 40/8/57
f 18/9/32 8/4/6 40/8/57 44/16/34
f 9/28/8 62/23/9 48/34/26
f 67/95/42 24/87/41 45/89/60 68/96/62
f 1/125/13 51/126/18 56/127/37 21/128/14
f 57/36/67 54/30/66 34/35/52 59/43/54
f 35/111/53 11/107/70 32/114/49 60/115/51
f 66/129/43 64/130/17 10/131/16 22/132/15
f 14/119/72 49/121/64 69/124/61 46/122/59
f 50/38/63 61/31/68 65/40/69 70/45/65
f 24/87/41 23/84/40 17/83/33 43/88/35 45/89/60
f 54/30/66 53/24/10 37/33/21 34/35/52
f 19/133/36 20/134/39 21/135/14
f 22/136/15 23/137/40 24/138/41
f 29/20/47 30/11/31 31/19/30
f 42/21/58 43/22/35 44/16/34
f 51/29/18 52/25/11 53/24/10 54/30/66
f 55/44/38 56/37/37 57/36/67
f 58/50/50 59/43/54 60/49/51
f 61/31/68 62/23/9 63/26/12 64/32/17
f 65/40/69 66/39/43 67/48/42
f 68/51/62 69/52/61 70/45/65
f 5/27/7 53/24/10 62/23/9 9/28/8
f 7/62/4 6/61/3 71/67/23 39/68/22
f 6/61/3 9/66/8 48/72/26 71/67/23
f 72/64/20 26/63/19 25/69/44 12/70/71
f 37/71/21 72/64/20 12/70/71 36/75/55
f 37/33/21 53/24/10 5/27/7
f 48/34/26 62/23/9 61/31/68 50/38/63
