# This file uses meters as units for non-parametric coordinates.

mtllib couch_01.mtl
g default
v 0.000000 0.000000 -100.000000
v 0.000000 -50.000000 -100.000000
v -50.000000 -50.000000 -100.000000
v -50.000000 0.000000 -100.000000
v -50.000000 50.000000 -100.000000
v 0.000000 50.000000 -100.000000
v 50.000000 0.000000 -100.000000
v 50.000000 -50.000000 -100.000000
v 0.000000 -50.000000 100.000000
v -50.000000 -50.000000 100.000000
v -50.000000 0.000000 100.000000
v -50.000000 50.000000 100.000000
v 50.000000 -50.000000 100.000000
v 0.000000 50.000000 100.000000
v 50.000000 0.000000 100.000000
v 0.000000 0.000000 100.000000
vt 0.625000 0.625000
vt 0.625000 0.750000
vt 0.375000 0.750000
vt 0.375000 0.625000
vt 0.375000 0.500000
vt 0.625000 0.500000
vt 0.625000 0.750000
vt 0.375000 0.750000
vt 0.375000 0.625000
vt 0.625000 1.000000
vt 0.375000 1.000000
vt 0.125000 0.125000
vt 0.125000 0.000000
vt 0.375000 0.000000
vt 0.375000 0.125000
vt 0.375000 0.250000
vt 0.125000 0.250000
vt 0.125000 0.125000
vt 0.125000 0.000000
vt 0.375000 0.000000
vt 0.375000 0.125000
vt 0.625000 0.250000
vt 0.625000 1.000000
vt 0.375000 1.000000
vt 0.875000 0.125000
vt 0.875000 0.250000
vt 0.625000 0.125000
vt 0.625000 0.000000
vt 0.875000 0.000000
vt 0.625000 0.000000
vn 0.000000 0.000000 -1.000000
vn 0.000000 0.000000 -1.000000
vn 0.000000 0.000000 -1.000000
vn 0.000000 0.000000 -1.000000
vn 0.000000 0.000000 -1.000000
vn 0.000000 0.000000 -1.000000
vn 0.000000 0.000000 -1.000000
vn 0.000000 0.000000 -1.000000
vn 0.000000 -1.000000 0.000000
vn 0.000000 -1.000000 0.000000
vn 0.000000 -1.000000 0.000000
vn 0.000000 -1.000000 0.000000
vn -1.000000 0.000000 0.000000
vn -1.000000 0.000000 0.000000
vn -1.000000 0.000000 0.000000
vn -1.000000 0.000000 0.000000
vn -1.000000 0.000000 0.000000
vn -1.000000 0.000000 0.000000
vn 0.000000 -1.000000 0.000000
vn 0.000000 -1.000000 0.000000
vn 0.000000 1.000000 0.000000
vn 0.000000 1.000000 0.000000
vn 0.000000 1.000000 0.000000
vn 0.000000 1.000000 0.000000
vn 1.000000 0.000000 0.000000
vn 1.000000 0.000000 0.000000
vn 1.000000 0.000000 0.000000
vn 1.000000 0.000000 0.000000
vn 1.000000 0.000000 0.000000
vn 1.000000 0.000000 0.000000
vn 1.000000 0.000000 0.000000
vn 1.000000 0.000000 0.000000
vn 0.000000 1.000000 0.000000
vn 0.000000 1.000000 0.000000
vn 0.000000 1.000000 0.000000
vn 0.000000 1.000000 0.000000
vn 0.000000 0.000000 1.000000
vn 0.000000 0.000000 1.000000
vn 0.000000 0.000000 1.000000
vn 0.000000 0.000000 1.000000
vn 0.000000 0.000000 1.000000
vn 0.000000 0.000000 1.000000
vn 0.000000 0.000000 1.000000
vn 0.000000 0.000000 1.000000
s 1
g pCube16
usemtl initialShadingGroup
f 1/1/1 2/2/2 3/3/3 4/4/4
f 4/4/4 5/5/5 6/6/6 1/1/1
f 1/1/1 7/7/7 8/8/8 2/9/2
s 2
f 3/3/9 2/2/10 9/10/11 10/11/12
s 3
f 4/12/13 3/13/14 10/14/15 11/15/16
f 11/15/16 12/16/17 5/17/18 4/12/13
s 2
f 2/18/10 8/19/19 13/20/20 9/21/11
s off
f 12/16/21 14/22/22 6/6/23 5/5/24
f 8/8/25 7/7/26 15/23/27 13/24/28
f 1/25/29 6/26/30 14/22/31 16/27/32
f 16/27/33 15/28/34 7/29/35 1/25/36
s 4
f 11/15/37 10/14/38 9/30/39 16/27/40
f 16/27/40 14/22/41 12/16/42 11/15/37
f 9/21/39 13/20/43 15/28/44 16/27/40
