# This file uses centimeters as units for non-parametric coordinates.

mtllib door_bar_02.mtl
g default
v -25.000000 -25.000000 150.000000
v 25.000000 -25.000000 150.000000
v -25.000000 25.000000 150.000000
v 25.000000 25.000000 150.000000
v -25.000000 25.000000 -150.000000
v 25.000000 25.000000 -150.000000
v -25.000000 -25.000000 -150.000000
v 25.000000 -25.000000 -150.000000
vt 0.347975 0.998008
vt 0.347975 0.001992
vt 0.513978 0.001992
vt 0.513978 0.998008
vt 0.520873 0.998008
vt 0.520873 0.001992
vt 0.686876 0.001992
vt 0.686876 0.998008
vt 0.001986 0.001992
vt 0.167988 0.001992
vt 0.167988 0.998008
vt 0.001986 0.998008
vt 0.175078 0.001992
vt 0.341080 0.001992
vt 0.341080 0.998008
vt 0.175078 0.998008
vt 0.693771 0.001992
vt 0.859773 0.001992
vt 0.859773 0.167995
vt 0.693771 0.167995
vt 0.828789 0.337976
vt 0.828789 0.171973
vt 0.994791 0.171973
vt 0.994791 0.337976
vn 0.000000 0.000000 1.000000
vn 0.000000 0.000000 1.000000
vn 0.000000 0.000000 1.000000
vn 0.000000 0.000000 1.000000
vn 0.000000 1.000000 0.000000
vn 0.000000 1.000000 0.000000
vn 0.000000 1.000000 0.000000
vn 0.000000 1.000000 0.000000
vn 0.000000 0.000000 -1.000000
vn 0.000000 0.000000 -1.000000
vn 0.000000 0.000000 -1.000000
vn 0.000000 0.000000 -1.000000
vn 0.000000 -1.000000 0.000000
vn 0.000000 -1.000000 0.000000
vn 0.000000 -1.000000 0.000000
vn 0.000000 -1.000000 0.000000
vn 1.000000 0.000000 0.000000
vn 1.000000 0.000000 0.000000
vn 1.000000 0.000000 0.000000
vn 1.000000 0.000000 0.000000
vn -1.000000 0.000000 0.000000
vn -1.000000 0.000000 0.000000
vn -1.000000 0.000000 0.000000
vn -1.000000 0.000000 0.000000
s off
g door_bar_01:pCube18
usemtl door_bar_01:initialShadingGroup
f 1/17/1 2/18/2 4/19/3 3/20/4
f 3/9/5 4/10/6 6/11/7 5/12/8
f 5/21/9 6/22/10 8/23/11 7/24/12
f 7/13/13 8/14/14 2/15/15 1/16/16
f 2/1/17 8/2/18 6/3/19 4/4/20
f 7/5/21 1/6/22 3/7/23 5/8/24
